<?xml version="1.0" standalone="no"?>
<!DOCTYPE svg PUBLIC "-//W3C//DTD SVG 20010904//EN"
 "http://www.w3.org/TR/2001/REC-SVG-20010904/DTD/svg10.dtd">
<svg version="1.0" xmlns="http://www.w3.org/2000/svg"
 width="500.000000pt" height="500.000000pt" viewBox="0 0 500.000000 500.000000"
 preserveAspectRatio="xMidYMid meet">

<g transform="translate(0.000000,500.000000) scale(0.100000,-0.100000)"
fill="#000000" stroke="none">
<path d="M1923 4513 l-563 -345 0 -600 0 -599 -64 56 c-37 33 -103 111 -159
189 -136 191 -183 287 -211 436 -32 165 -20 257 55 424 27 60 49 113 49 117 0
11 -72 -15 -158 -58 -79 -39 -113 -74 -137 -142 -8 -24 -26 -56 -40 -72 -13
-17 -29 -47 -35 -69 -6 -21 -28 -60 -51 -87 -22 -26 -54 -77 -72 -113 -31 -62
-32 -70 -32 -186 0 -80 -4 -126 -12 -135 -7 -8 -30 -52 -53 -97 -39 -80 -40
-84 -40 -189 0 -104 -2 -110 -31 -153 -29 -42 -30 -50 -27 -121 2 -62 9 -88
40 -150 20 -40 42 -94 48 -119 7 -25 21 -62 32 -83 10 -21 26 -79 34 -129 15
-92 45 -178 70 -199 8 -6 14 -25 14 -41 0 -96 134 -196 370 -273 l125 -42 5
-55 c8 -90 39 -118 128 -118 l65 0 -7 -70 c-7 -69 -7 -71 23 -100 16 -17 39
-30 50 -30 21 0 21 -3 21 -267 l0 -268 213 -129 c116 -71 373 -228 570 -348
319 -195 360 -217 380 -207 12 6 271 163 574 348 l553 336 0 265 0 265 33 15
c45 21 61 59 51 123 -5 29 -8 56 -9 61 0 5 30 8 67 7 58 -2 69 1 88 21 29 31
40 61 40 111 l0 42 113 34 c61 19 135 46 162 59 130 64 233 160 221 207 -3 13
4 36 20 58 34 51 53 108 64 192 5 39 23 103 39 142 17 40 31 78 31 86 0 8 19
51 42 96 63 126 65 249 4 300 -13 11 -16 36 -16 129 l0 115 -56 106 -56 105 7
88 c6 69 4 97 -10 140 -19 56 -71 146 -110 188 -13 14 -28 44 -34 67 -7 23
-22 55 -35 70 -13 15 -37 58 -54 94 -26 60 -36 70 -89 101 -32 19 -88 47 -123
61 -77 31 -85 23 -46 -50 65 -125 80 -181 84 -314 5 -155 -15 -248 -83 -384
-55 -110 -191 -297 -280 -385 l-65 -64 0 591 0 591 -564 345 c-310 190 -572
347 -582 350 -13 3 -202 -108 -581 -340z m807 92 c119 -71 352 -213 518 -315
l302 -185 0 -625 0 -626 -249 -152 -249 -152 -246 151 -246 151 0 644 0 644
-50 0 -50 0 0 -670 0 -670 44 -28 c24 -15 269 -164 544 -332 l501 -305 -2
-629 -2 -629 -519 -317 -519 -318 -211 128 c-116 71 -350 214 -521 318 l-310
190 -3 629 -2 630 249 152 249 151 250 -152 251 -153 1 -642 0 -643 50 0 50 0
0 668 0 667 -550 335 -549 335 0 630 -1 630 518 316 c284 174 522 314 527 311
6 -4 107 -65 225 -137z m1431 -556 c49 -49 68 -92 78 -173 l7 -61 16 35 15 35
11 -40 c15 -51 15 -170 1 -198 -6 -12 -25 -37 -42 -54 -35 -37 -32 -49 7 -32
14 7 29 9 32 6 8 -8 -22 -130 -41 -167 -7 -14 -32 -39 -54 -55 -47 -32 -48
-44 -2 -21 16 9 32 16 36 16 30 0 -69 -149 -115 -173 -19 -10 -25 -15 -12 -12
34 10 28 -15 -21 -81 -32 -44 -58 -67 -100 -88 -63 -32 -68 -43 -13 -28 20 6
36 7 36 4 0 -16 -104 -113 -133 -126 -52 -21 -57 -14 -50 80 4 60 3 84 -6 84
-7 0 -11 -19 -11 -50 0 -65 -27 -121 -96 -201 -83 -96 -270 -229 -369 -263
-116 -39 -113 -39 -151 -15 -19 12 -32 25 -27 29 4 4 101 64 215 133 309 188
278 163 278 226 l0 54 93 96 c297 306 430 639 368 919 -11 51 -29 112 -40 136
-10 25 -17 47 -14 50 10 9 63 -24 104 -65z m-3221 56 c0 -2 -9 -28 -21 -56
-54 -138 -61 -318 -19 -469 55 -198 272 -527 419 -635 39 -29 41 -32 41 -85
l0 -55 163 -99 c89 -55 202 -124 250 -154 l89 -54 -43 -28 c-37 -25 -44 -27
-63 -15 -12 8 -36 17 -54 20 -46 8 -111 42 -223 117 -177 118 -279 246 -279
349 0 26 -5 51 -12 55 -8 5 -10 -14 -5 -74 3 -47 1 -84 -4 -88 -22 -13 -76 12
-126 59 -64 60 -69 80 -17 65 57 -15 50 -3 -16 28 -51 24 -68 40 -106 94 l-45
65 28 5 28 6 -32 11 c-32 12 -71 57 -108 126 -24 44 -17 54 25 32 44 -23 49
-12 6 14 -19 12 -44 36 -55 54 -22 37 -51 129 -51 165 l0 24 35 -22 c43 -27
44 -18 4 28 -50 57 -62 96 -54 176 3 37 11 80 17 95 l10 26 16 -35 16 -35 6
65 c8 94 47 158 130 213 23 16 50 22 50 12z m-277 -452 c6 -89 25 -191 47
-257 17 -54 6 -68 -13 -16 -8 25 -16 38 -16 28 -1 -24 66 -213 101 -282 43
-85 102 -178 170 -268 32 -43 58 -82 58 -88 0 -24 -24 -5 -86 70 -36 44 -68
80 -71 80 -12 0 49 -91 114 -168 40 -47 70 -88 68 -90 -2 -3 -20 7 -40 22 -51
39 -43 18 15 -39 28 -27 50 -53 50 -57 0 -4 -15 -8 -33 -8 -29 0 -44 11 -100
69 -70 72 -81 89 -46 71 11 -6 25 -9 32 -7 7 2 -10 17 -38 33 -58 34 -118 91
-141 136 -15 29 -15 31 2 23 61 -25 64 -13 6 25 -60 40 -101 89 -123 147 -13
34 -7 38 31 18 44 -23 47 -13 6 18 -46 36 -75 85 -92 160 -8 34 -17 70 -20 80
-7 23 12 22 43 -3 39 -30 38 -17 -1 34 -46 61 -60 110 -46 172 6 25 16 56 22
68 18 35 79 116 87 116 5 0 11 -39 14 -87z m3720 52 c42 -53 80 -143 80 -190
0 -43 -27 -104 -68 -153 -35 -42 -31 -49 11 -17 19 15 38 24 41 21 10 -10 -17
-117 -44 -174 -13 -28 -40 -64 -59 -78 -41 -32 -38 -42 6 -19 18 9 34 14 37
12 2 -3 -10 -32 -26 -66 -26 -50 -43 -69 -99 -107 -61 -42 -60 -46 3 -27 19 6
19 6 1 -23 -44 -69 -68 -93 -132 -130 -42 -25 -61 -40 -50 -42 9 -2 24 2 32 9
8 6 17 9 21 5 3 -3 -25 -38 -64 -76 -57 -57 -75 -70 -101 -70 -18 0 -32 4 -32
8 0 4 16 24 36 43 20 18 45 48 57 64 l22 30 -42 -32 c-22 -18 -44 -33 -47 -33
-13 0 17 44 69 100 54 59 110 138 102 146 -2 2 -35 -33 -73 -78 -86 -102 -102
-82 -21 25 71 93 152 224 188 304 36 80 89 238 88 261 0 9 -7 -2 -16 -26 -21
-61 -29 -44 -10 20 17 56 47 244 47 297 0 40 9 39 43 -4z m-3604 -483 c47
-103 114 -213 199 -325 29 -37 52 -72 52 -78 0 -26 -26 4 -113 134 -94 141
-139 221 -177 317 -34 87 -7 54 39 -48z m3441 -29 c-50 -105 -225 -383 -242
-383 -19 0 -4 29 50 97 69 86 140 204 196 324 22 49 42 85 44 79 2 -5 -19 -58
-48 -117z m-3681 14 c32 -105 68 -185 138 -309 53 -94 89 -142 167 -224 54
-58 96 -107 93 -110 -10 -10 -177 158 -241 241 -33 44 -76 107 -94 140 -36 65
-33 38 3 -35 41 -81 127 -193 224 -293 104 -107 118 -149 16 -47 -35 35 -67
62 -70 59 -2 -3 27 -37 65 -75 42 -41 74 -83 81 -104 6 -19 23 -61 37 -93 14
-31 22 -60 19 -63 -6 -6 -69 36 -122 81 -28 24 -29 27 -12 39 16 12 15 14 -10
19 -34 7 -123 63 -123 77 0 5 14 10 32 10 40 0 28 12 -35 35 -45 17 -86 54
-123 111 -21 31 -15 38 21 24 46 -17 39 -5 -19 33 -46 30 -60 48 -90 109 -20
40 -39 88 -42 107 l-7 33 32 -17 33 -16 -26 38 c-40 58 -50 106 -36 178 13 67
44 130 60 120 5 -3 18 -34 29 -68z m3983 32 c23 -44 40 -133 32 -168 -4 -14
-19 -50 -36 -79 -25 -46 -26 -52 -9 -43 51 28 50 -3 -6 -116 -30 -61 -45 -79
-90 -109 -57 -38 -65 -52 -18 -34 39 15 42 6 11 -35 -42 -54 -77 -83 -123
-103 -48 -19 -55 -32 -18 -32 14 0 25 -4 25 -10 0 -13 -71 -59 -117 -75 -37
-13 -37 -14 -14 -23 24 -8 21 -11 -51 -65 -65 -49 -98 -67 -98 -53 0 2 11 23
24 47 13 24 30 64 37 89 9 34 30 64 88 123 87 89 87 103 -1 22 -99 -92 -85
-62 28 63 107 117 168 200 218 299 36 73 32 80 -7 10 -17 -31 -52 -85 -77
-120 -49 -68 -248 -272 -257 -264 -3 4 32 47 78 97 46 50 103 119 127 153 61
87 157 282 188 383 15 46 31 83 37 81 6 -2 19 -19 29 -38z m-4078 -401 c72
-190 291 -436 519 -584 83 -53 99 -66 94 -71 -11 -10 -155 75 -257 153 -32 24
-103 91 -159 150 -102 107 -136 131 -82 58 79 -107 290 -293 392 -345 39 -19
55 -36 45 -46 -5 -5 -100 44 -164 84 l-27 17 20 -23 c11 -13 49 -43 85 -66 59
-38 66 -46 76 -88 12 -53 5 -58 -47 -31 -25 12 -28 18 -18 30 9 12 6 14 -22
14 -36 0 -100 29 -107 48 -1 5 7 13 19 17 17 6 19 9 8 16 -8 5 -23 9 -35 9
-33 0 -100 37 -129 72 l-28 33 39 6 c42 6 42 6 -48 39 -65 24 -119 77 -150
147 -23 53 -19 63 18 34 15 -11 31 -21 35 -21 18 0 8 16 -21 33 -30 18 -90
101 -109 150 -24 63 -4 207 28 207 5 0 16 -19 25 -42z m4160 8 c20 -43 21
-126 1 -174 -28 -65 -76 -131 -113 -154 -20 -12 -30 -24 -23 -26 7 -2 26 5 42
17 37 28 39 27 29 -11 -23 -78 -102 -155 -185 -178 -58 -16 -67 -30 -20 -30
l36 0 -21 -31 c-22 -30 -98 -72 -155 -85 -29 -6 -30 -6 -7 -17 12 -5 22 -14
22 -19 0 -13 -80 -48 -112 -48 -20 0 -25 -4 -21 -18 3 -13 -5 -21 -30 -30 -46
-16 -47 -16 -37 16 5 15 8 36 7 46 -1 14 14 29 53 52 56 33 142 103 105 85
-11 -5 -51 -28 -90 -50 -38 -23 -73 -41 -77 -41 -23 0 2 23 88 79 101 66 285
235 336 309 34 49 30 71 -4 26 -32 -42 -173 -178 -248 -239 -60 -48 -215 -145
-232 -145 -21 0 -3 21 40 45 152 88 373 292 461 425 31 47 71 118 90 158 19
40 38 72 42 72 4 0 14 -15 23 -34z m-3424 -66 c22 -6 65 -39 115 -87 78 -76
205 -167 293 -212 23 -12 42 -26 42 -32 0 -20 -52 1 -144 57 -95 58 -96 59
-96 44 0 -11 96 -78 158 -109 37 -19 56 -41 34 -41 -4 0 -52 25 -106 56 -53
31 -100 54 -102 51 -4 -4 124 -93 192 -133 10 -7 16 -15 12 -19 -4 -5 -56 13
-114 39 -59 26 -109 45 -111 42 -3 -3 42 -29 101 -58 58 -29 106 -56 106 -60
0 -5 -10 -13 -23 -19 -31 -14 -131 31 -258 117 -135 91 -195 172 -206 279 -9
89 18 110 107 85z m2741 -12 c28 -52 -10 -171 -80 -250 -44 -50 -184 -147
-284 -197 -59 -29 -72 -32 -93 -22 -14 6 -22 16 -19 21 4 6 52 33 107 61 55
28 98 52 95 55 -2 3 -51 -16 -107 -41 -56 -25 -106 -45 -111 -45 -25 0 -1 22
74 67 45 28 91 61 102 73 l20 23 -25 -13 c-14 -7 -59 -32 -101 -56 -80 -46
-89 -50 -89 -35 0 5 35 30 78 55 42 25 88 54 102 65 41 32 15 35 -32 3 -48
-33 -162 -92 -178 -92 -27 0 -2 23 86 75 95 56 267 192 277 218 8 22 88 57
129 57 28 0 40 -5 49 -22z m-2805 -270 c16 -13 40 -33 54 -46 42 -38 127 -92
222 -139 60 -30 87 -48 80 -55 -6 -6 -36 2 -87 26 -89 41 -96 28 -11 -20 50
-27 55 -33 40 -42 -12 -7 -27 -5 -50 4 -39 16 -44 17 -44 6 0 -5 10 -14 23
-21 18 -10 22 -19 19 -45 -4 -33 -4 -33 -43 -25 -47 11 -199 86 -248 123 -34
26 -45 41 -81 111 -22 45 -26 115 -8 133 21 21 102 15 134 -10z m2904 7 c16
-19 9 -88 -15 -140 -10 -22 -39 -60 -64 -84 -46 -43 -200 -125 -258 -137 -28
-5 -31 -4 -35 25 -3 19 1 36 11 46 15 15 12 16 -30 10 -55 -8 -72 7 -30 25 39
16 99 60 82 60 -8 0 -39 -12 -71 -26 -92 -41 -105 -25 -16 19 93 47 240 144
280 186 26 27 37 31 82 31 34 0 56 -5 64 -15z m-2297 -82 c7 -6 -2 -14 -65
-52 -46 -27 -50 -12 -9 30 28 27 60 37 74 22z m1607 -8 c25 -13 50 -42 50 -59
0 -8 -110 58 -110 67 0 12 29 8 60 -8z m-2740 -155 c94 -108 305 -246 438
-285 26 -8 56 -21 67 -30 19 -15 18 -16 -15 -9 -41 8 -211 82 -287 124 -64 37
-74 38 -43 5 33 -35 159 -106 259 -146 81 -33 91 -51 16 -30 -42 11 -39 -1 5
-19 19 -8 29 -18 26 -26 -3 -8 8 -18 29 -26 38 -13 44 -28 20 -48 -15 -12 -71
0 -202 46 -51 18 -73 41 -49 50 27 10 18 24 -15 24 -63 0 -112 23 -174 83 -50
49 -56 58 -35 54 14 -2 33 -8 44 -12 34 -15 13 14 -39 53 -35 26 -59 55 -79
95 -30 59 -47 157 -28 157 5 0 33 -27 62 -60z m3890 26 c0 -47 -38 -142 -69
-174 -14 -15 -44 -42 -65 -59 -43 -35 -44 -51 -2 -32 46 21 42 -2 -8 -48 -63
-57 -98 -74 -166 -83 -44 -6 -50 -9 -32 -15 49 -16 -4 -49 -142 -90 l-89 -27
-21 21 -20 21 41 16 c27 11 40 21 36 30 -3 8 -1 14 4 14 5 0 18 7 29 15 18 14
15 15 -31 10 l-50 -6 70 29 c131 53 208 96 259 145 30 29 40 43 24 33 -117
-69 -314 -157 -350 -156 -23 1 23 29 76 46 68 22 236 114 305 166 31 23 85 73
121 110 36 37 68 68 73 68 4 0 7 -15 7 -34z m-3223 -158 c75 -24 103 -37 103
-50 0 -11 -6 -15 -22 -12 l-23 5 23 -12 c24 -13 31 -58 10 -60 -10 0 -10 -2 0
-6 6 -2 12 -20 12 -39 0 -33 -1 -34 -43 -34 -94 0 -223 57 -258 113 -26 44
-25 92 3 111 34 24 82 20 195 -16z m2689 7 c33 -44 6 -111 -59 -150 -60 -34
-152 -65 -198 -65 l-38 0 0 65 c1 50 5 67 17 75 15 8 15 9 -1 10 -11 0 -17 6
-15 16 2 9 35 27 83 44 96 34 188 36 211 5z m-2586 -370 l0 -94 -32 -17 c-18
-9 -49 -30 -68 -45 -41 -34 -59 -36 -93 -9 -76 60 -14 199 109 244 21 8 49 15
62 15 21 1 22 -2 22 -94z m2362 78 c24 -9 56 -26 71 -37 38 -28 81 -118 73
-152 -8 -32 -49 -74 -73 -74 -10 0 -46 21 -81 46 l-62 47 0 93 c0 106 0 106
72 77z m-2362 -308 c0 -48 -4 -85 -10 -85 -13 0 -30 33 -31 62 -1 18 -2 19 -6
5 -6 -24 14 -74 33 -81 16 -6 19 -36 3 -36 -45 0 -73 60 -60 128 8 40 43 92
63 92 4 0 8 -38 8 -85z m2332 35 c33 -63 16 -170 -28 -170 -19 0 -18 29 4 54
16 20 16 20 0 7 -17 -13 -18 -8 -18 69 0 90 10 99 42 40z"/>
<path d="M3748 2887 c-15 -24 -37 -52 -48 -62 -23 -21 -26 -35 -6 -35 20 0 71
64 84 105 14 47 3 44 -30 -8z"/>
<path d="M1220 2899 c10 -36 55 -98 76 -106 25 -9 30 7 8 25 -12 9 -35 38 -53
65 -18 26 -34 47 -36 47 -2 0 0 -14 5 -31z"/>
<path d="M865 2470 c16 -16 31 -28 33 -25 7 7 -39 55 -52 55 -5 0 3 -13 19
-30z"/>
<path d="M4115 2470 c-16 -17 -24 -30 -19 -30 13 0 59 48 52 55 -2 3 -17 -9
-33 -25z"/>
<path d="M1127 2691 c-11 -42 10 -105 47 -138 50 -46 64 -41 22 8 -24 28 -39
59 -46 95 -6 30 -13 54 -15 54 -1 0 -5 -9 -8 -19z"/>
<path d="M1170 2653 c1 -11 26 -43 33 -43 4 0 1 11 -5 25 -10 23 -28 35 -28
18z"/>
<path d="M3855 2685 c-14 -64 -27 -93 -46 -111 -12 -10 -25 -27 -31 -37 -9
-17 -8 -17 20 -3 17 9 39 27 50 41 25 31 37 97 24 122 -9 16 -11 14 -17 -12z"/>
<path d="M3801 2634 c-17 -38 -6 -42 14 -5 8 17 12 31 7 31 -5 0 -14 -12 -21
-26z"/>
<path d="M1018 2454 c-13 -12 -9 -63 6 -93 19 -35 81 -91 103 -91 10 0 -3 18
-34 49 -39 38 -51 58 -59 96 -5 26 -12 44 -16 39z"/>
<path d="M1090 2373 c0 -5 9 -18 20 -28 11 -10 20 -14 20 -8 0 5 -9 18 -20 28
-11 10 -20 14 -20 8z"/>
<path d="M3965 2425 c-9 -51 -28 -82 -73 -122 -27 -24 -32 -33 -19 -33 9 0 35
18 56 39 45 45 69 108 53 137 -9 16 -11 13 -17 -21z"/>
<path d="M3885 2360 c-10 -11 -13 -20 -8 -20 13 0 38 29 31 35 -3 3 -13 -4
-23 -15z"/>
<path d="M1070 2071 c0 -20 52 -70 83 -79 90 -28 124 -21 47 8 -35 14 -102 58
-108 73 -5 10 -22 9 -22 -2z"/>
<path d="M1169 2049 c13 -11 27 -17 30 -13 7 7 -28 34 -43 34 -6 -1 0 -10 13
-21z"/>
<path d="M3895 2060 c-10 -11 -47 -35 -82 -52 -35 -17 -62 -32 -61 -34 7 -7
101 17 123 32 27 17 62 74 47 74 -5 0 -17 -9 -27 -20z"/>
<path d="M3814 2056 c-10 -8 -17 -17 -14 -19 3 -3 16 3 29 14 27 22 15 26 -15
5z"/>
<path d="M1210 1685 c7 -9 15 -13 17 -11 7 7 -7 26 -19 26 -6 0 -6 -6 2 -15z"/>
<path d="M1172 1658 c9 -13 26 -24 39 -26 23 -3 23 -2 -6 22 -37 32 -52 33
-33 4z"/>
<path d="M3775 1689 c-11 -17 1 -21 15 -4 8 9 8 15 2 15 -6 0 -14 -5 -17 -11z"/>
<path d="M3796 1657 c-16 -13 -25 -26 -20 -30 13 -8 58 27 53 41 -3 7 -15 3
-33 -11z"/>
<path d="M3682 1505 c0 -16 2 -22 5 -12 2 9 2 23 0 30 -3 6 -5 -1 -5 -18z"/>
</g>
</svg>
