<?xml version="1.0" standalone="no"?>
<!DOCTYPE svg PUBLIC "-//W3C//DTD SVG 20010904//EN"
 "http://www.w3.org/TR/2001/REC-SVG-20010904/DTD/svg10.dtd">
<svg version="1.0" xmlns="http://www.w3.org/2000/svg"
 width="500.000000pt" height="500.000000pt" viewBox="0 0 500.000000 500.000000"
 preserveAspectRatio="xMidYMid meet">

<g transform="translate(0.000000,500.000000) scale(0.100000,-0.100000)"
fill="#000" stroke="none">
<path d="M591 3613 c-2 -64 -4 -69 -42 -104 -34 -31 -39 -41 -39 -80 0 -53 29
-105 66 -119 14 -6 47 -10 73 -10 34 0 53 -5 64 -18 21 -23 21 -33 0 -93 -17
-47 -17 -50 0 -82 16 -29 17 -51 13 -173 -3 -76 -8 -283 -11 -459 -16 -1044
-17 -1090 -31 -1098 -8 -4 -14 -14 -14 -20 0 -7 -9 -20 -20 -30 -21 -18 -27
-62 -9 -73 6 -3 8 -17 4 -31 -3 -14 -1 -31 5 -38 9 -10 6 -24 -12 -54 -19 -33
-29 -41 -58 -43 l-35 -3 0 -70 0 -70 425 0 425 0 0 70 0 70 -35 3 c-29 2 -39
10 -58 43 -17 29 -20 44 -13 53 6 7 9 25 8 42 l-2 29 135 1 c158 1 225 8 323
35 110 31 196 81 270 157 110 115 159 242 161 417 1 126 -24 212 -93 318 -66
100 -155 186 -325 310 -286 210 -334 255 -356 337 -31 116 74 199 236 187 90
-7 172 -42 269 -115 l70 -53 7 33 c4 18 17 100 29 181 26 168 31 153 -61 188
-184 70 -473 77 -650 15 -36 -13 -73 -26 -82 -30 -14 -6 -18 -3 -18 11 0 33
32 53 84 53 87 0 136 46 136 130 0 32 -6 48 -28 69 -15 15 -32 30 -39 32 -7 2
-12 29 -14 64 -1 33 -4 66 -7 73 -3 9 -88 12 -376 12 l-373 0 -2 -67z m739 42
c0 -13 -47 -15 -360 -15 -313 0 -360 2 -360 15 0 13 47 15 360 15 313 0 360
-2 360 -15z m0 -35 c0 -6 -126 -10 -359 -10 -229 0 -362 4 -366 10 -4 7 118
10 359 10 237 0 366 -4 366 -10z m10 -45 c0 -13 -48 -15 -370 -15 -322 0 -370
2 -370 15 0 13 48 15 370 15 322 0 370 -2 370 -15z m-100 -29 c0 -2 -19 -14
-43 -25 -39 -19 -61 -21 -228 -21 -152 0 -191 3 -226 18 -24 9 -43 20 -43 25
0 4 122 7 270 7 149 0 270 -2 270 -4z m-500 -38 c60 -31 104 -93 135 -189 28
-90 31 -119 12 -119 -8 0 -21 26 -31 63 -20 72 -59 147 -92 178 -21 20 -24 21
-24 5 0 -10 11 -26 23 -37 27 -20 72 -115 83 -172 6 -36 5 -39 -17 -35 -18 2
-25 12 -32 40 -5 22 -21 48 -39 63 -16 14 -26 29 -23 35 13 21 24 70 14 65 -5
-4 -9 -14 -9 -24 0 -9 -6 -26 -14 -36 -13 -18 -11 -22 20 -50 20 -18 37 -43
40 -62 6 -31 5 -33 -23 -33 -27 0 -30 3 -25 27 5 27 -23 93 -41 93 -5 0 -2 12
8 26 38 59 12 118 -50 112 -57 -6 -61 -93 -4 -93 17 0 25 6 27 23 3 18 -1 22
-20 21 -18 -1 -19 -2 -5 -6 21 -5 18 -28 -4 -28 -8 0 -15 12 -17 32 -2 24 1
33 17 38 31 10 61 -11 61 -43 0 -77 -83 -99 -127 -33 -32 47 -29 83 8 126 38
43 82 47 149 13z m611 -9 c40 -43 40 -96 1 -140 -34 -39 -77 -42 -104 -9 -25
31 -23 76 3 91 44 23 91 -25 57 -59 -7 -7 -16 -12 -20 -12 -13 0 -9 28 5 33 7
3 6 6 -5 6 -21 1 -30 -12 -22 -33 8 -21 50 -21 58 0 18 46 -1 84 -42 84 -59 0
-83 -56 -47 -108 15 -20 14 -24 -10 -49 -14 -16 -25 -40 -25 -55 0 -17 -7 -31
-19 -38 -28 -15 -31 -13 -31 17 0 17 13 38 39 63 37 35 38 38 24 65 -8 15 -13
43 -11 61 5 44 -12 44 -46 -1 -30 -38 -59 -105 -76 -172 -6 -26 -17 -43 -25
-43 -20 0 -19 15 6 96 42 135 86 195 164 222 58 20 95 15 126 -19z m-796 -27
c-21 -42 -6 -101 36 -136 35 -30 31 -33 -11 -11 -58 30 -77 110 -39 159 27 34
34 28 14 -12z m861 -27 c8 -46 -17 -100 -58 -121 l-33 -16 32 34 c41 42 50 83
29 133 -16 38 -16 38 4 20 11 -10 22 -32 26 -50z m-298 13 c-8 -13 -23 -38
-32 -55 l-16 -33 -33 20 c-17 11 -48 20 -67 20 -19 0 -50 -9 -67 -20 l-33 -20
-16 33 c-9 17 -26 42 -37 55 l-20 22 167 0 168 0 -14 -22z m85 -116 c5 -8 -2
-21 -22 -38 -18 -14 -35 -42 -41 -65 -8 -28 -16 -39 -30 -39 -13 0 -20 7 -20
18 0 30 38 133 63 169 l22 33 10 -32 c6 -18 14 -39 18 -46z m-198 48 l26 -10
-21 -39 c-11 -22 -25 -43 -30 -46 -15 -9 -47 21 -59 56 -9 26 -8 31 12 39 29
12 41 12 72 0z m-92 -52 c30 -72 69 -75 106 -10 35 64 46 40 23 -49 l-19 -74
-57 -3 c-50 -3 -56 -1 -56 17 0 10 -8 46 -19 80 -10 33 -16 63 -13 66 12 12
22 4 35 -27z m826 -138 c41 -6 101 -17 133 -26 l59 -17 -6 -51 c-4 -28 -10
-55 -14 -59 -4 -4 -36 6 -71 22 -85 40 -158 54 -255 49 -180 -10 -301 -129
-281 -274 16 -122 87 -202 335 -383 213 -154 300 -234 363 -330 60 -92 78
-152 78 -261 0 -251 -128 -418 -371 -487 -101 -28 -396 -25 -549 5 -63 13
-117 25 -121 27 -5 4 9 115 17 124 1 1 47 -13 101 -32 325 -115 542 -78 624
107 14 33 22 70 22 111 0 125 -79 230 -301 402 -285 221 -355 290 -422 423
-29 56 -34 78 -38 156 -9 193 51 324 190 414 114 74 312 105 507 80z m-604
-20 c-4 -6 -85 -10 -211 -10 -129 0 -204 4 -204 10 0 6 77 10 211 10 137 0
208 -3 204 -10z m-35 -30 c0 -6 -72 -10 -196 -10 -127 0 -193 3 -189 10 4 6
80 10 196 10 119 0 189 -4 189 -10z m-35 -40 c-4 -6 -72 -10 -170 -10 -98 0
-166 4 -170 10 -4 7 55 10 170 10 115 0 174 -3 170 -10z m-35 -37 c0 -3 -6
-14 -14 -22 -16 -18 -65 -151 -68 -184 -1 -12 -4 23 -7 78 -6 100 -6 100 -33
103 -22 3 -28 -2 -33 -20 -3 -13 -4 -381 -3 -818 l3 -795 23 -10 c42 -19 21
-25 -84 -25 l-106 0 6 233 c3 127 8 394 11 592 3 198 8 419 10 490 3 72 5 187
5 258 l0 127 145 0 c80 0 145 -3 145 -7z m-110 -45 c3 -316 -2 -1603 -6 -1610
-20 -32 -24 46 -24 413 0 1289 -1 1209 15 1209 8 0 15 -6 15 -12z m63 -515
c15 -28 17 -78 17 -428 0 -237 -4 -394 -9 -391 -9 6 -25 -52 -39 -144 -10 -64
-18 367 -14 755 3 274 5 314 16 280 7 -22 20 -54 29 -72z m67 -476 c0 -291 -3
-368 -12 -365 -10 4 -14 92 -16 388 -2 341 -1 382 13 365 12 -17 14 -79 15
-388z m66 -61 l7 -347 -26 12 c-26 12 -26 14 -29 128 -2 64 -2 226 0 359 3
242 3 244 22 220 17 -23 19 -52 26 -372z m51 -35 c5 -296 4 -331 -10 -326 -8
4 -18 16 -21 28 -3 12 -6 166 -6 342 0 288 2 318 15 304 13 -13 17 -67 22
-348z m47 160 c6 -147 9 -501 4 -506 -2 -2 -10 0 -18 5 -13 8 -16 61 -18 332
-3 290 -2 321 12 308 11 -11 16 -46 20 -139z m216 -47 c213 -164 276 -247 268
-348 -12 -139 -138 -192 -352 -148 -54 12 -100 22 -101 24 -2 2 -7 145 -11
318 l-7 315 44 -36 c24 -20 96 -76 159 -125z m-512 -701 c3 -10 -25 -13 -117
-13 -111 0 -133 5 -114 24 13 12 226 2 231 -11z m142 -48 c56 -13 129 -27 161
-31 37 -4 58 -11 56 -18 -3 -8 -94 -12 -304 -14 -264 -2 -303 0 -317 14 -20
20 -20 38 0 58 13 13 42 16 159 16 119 0 162 -4 245 -25z m218 -102 l3 -23
-309 0 c-254 0 -311 2 -315 14 -13 34 13 36 318 34 l300 -3 3 -22z m-8 -48 c0
-13 -40 -15 -300 -15 -260 0 -300 2 -300 15 0 13 40 15 300 15 260 0 300 -2
300 -15z m14 -31 c9 -3 16 -12 16 -20 0 -12 -55 -14 -335 -14 -184 0 -335 4
-335 8 0 29 30 32 331 32 169 0 314 -3 323 -6z m99 -106 c-1 -29 -2 -56 -2
-60 -1 -5 -185 -8 -411 -8 -226 0 -410 3 -411 8 0 4 -1 31 -2 60 l-2 52 415 0
415 0 -2 -52z"/>
<path d="M776 3041 c-6 -9 -21 -1043 -21 -1415 0 -187 2 -210 17 -220 29 -18
43 8 45 82 1 37 4 368 7 737 4 369 9 693 12 721 7 72 -2 104 -31 104 -13 0
-26 -4 -29 -9z m40 -523 c-4 -288 -9 -609 -11 -715 -3 -105 -5 -235 -5 -287 0
-79 -3 -96 -15 -96 -8 0 -15 6 -15 13 -3 68 2 695 5 807 3 80 5 290 6 467 1
177 4 324 7 327 3 3 12 6 20 6 12 0 13 -74 8 -522z"/>
<path d="M2126 3658 c-3 -13 -6 -44 -6 -70 0 -40 -4 -50 -26 -64 -73 -49 -70
-170 6 -209 16 -8 51 -15 78 -15 35 0 54 -5 65 -18 21 -23 21 -31 0 -94 -15
-48 -15 -53 1 -81 15 -28 15 -81 0 -875 -9 -465 -20 -850 -25 -856 -5 -6 -20
-25 -34 -42 -29 -36 -31 -52 -11 -79 10 -14 11 -25 4 -38 -6 -12 -6 -22 1 -31
11 -13 4 -56 -9 -56 -5 0 -11 -9 -15 -19 -4 -14 -17 -21 -43 -23 l-37 -3 0
-70 0 -70 425 0 425 0 0 70 0 70 -37 3 c-21 2 -38 8 -38 14 0 5 -9 21 -20 35
-15 19 -17 30 -10 43 6 10 9 27 8 37 -1 10 2 33 7 51 l8 32 114 0 115 0 -6 27
c-27 130 -61 1028 -37 978 5 -11 10 -30 10 -41 1 -17 9 -23 42 -28 32 -5 53
-18 93 -60 60 -61 105 -143 171 -311 26 -66 59 -142 72 -170 68 -135 173 -266
260 -327 42 -28 43 -29 27 -54 -14 -21 -15 -29 -4 -52 20 -44 20 -103 -2 -139
-15 -25 -27 -32 -56 -35 l-37 -3 0 -70 0 -70 425 0 425 0 0 70 0 70 -37 3
c-23 2 -38 8 -38 16 0 8 -6 19 -14 25 -15 12 -17 104 -3 118 17 17 5 67 -25
104 l-32 40 -15 845 c-11 655 -12 850 -3 865 16 25 15 58 -3 109 -13 38 -13
46 -1 65 12 19 26 23 80 27 74 4 107 27 126 85 16 47 4 87 -37 124 -33 29 -36
36 -41 100 l-5 69 -372 0 -372 0 -7 -46 c-3 -26 -6 -59 -6 -74 0 -19 -7 -30
-25 -38 -65 -30 -72 -134 -11 -189 32 -30 42 -33 96 -33 55 0 62 -2 72 -25 8
-19 7 -37 -4 -78 -14 -47 -14 -58 -2 -87 14 -33 14 -33 -38 16 -29 28 -78 62
-108 77 -119 58 -335 81 -660 71 -208 -6 -224 -6 -211 10 9 11 29 16 63 16 90
0 138 46 138 131 0 36 -6 47 -40 79 -37 34 -40 41 -40 88 0 89 34 82 -380 82
l-368 0 -6 -22z m734 -3 c0 -13 -47 -15 -360 -15 -313 0 -360 2 -360 15 0 13
47 15 360 15 313 0 360 -2 360 -15z m1530 0 c0 -13 -46 -15 -354 -15 -322 0
-379 4 -359 24 3 3 165 6 360 6 307 0 353 -2 353 -15z m-1530 -35 c0 -6 -127
-10 -360 -10 -233 0 -360 4 -360 10 0 6 127 10 360 10 233 0 360 -4 360 -10z
m1540 0 c0 -6 -128 -10 -365 -10 -237 0 -365 4 -365 10 0 6 128 10 365 10 237
0 365 -4 365 -10z m-1530 -45 c0 -13 -48 -15 -370 -15 -322 0 -370 2 -370 15
0 13 48 15 370 15 322 0 370 -2 370 -15z m1530 0 c0 -13 -47 -15 -365 -15
-318 0 -365 2 -365 15 0 13 47 15 365 15 318 0 365 -2 365 -15z m-1630 -30 c0
-2 -19 -14 -42 -25 -37 -18 -62 -20 -227 -20 -154 0 -193 3 -228 18 -24 9 -43
20 -43 25 0 4 122 7 270 7 149 0 270 -2 270 -5z m1530 -2 c0 -5 -19 -16 -43
-25 -35 -15 -74 -18 -226 -18 -167 0 -189 2 -228 21 -24 11 -43 23 -43 25 0 2
122 4 270 4 149 0 270 -3 270 -7z m-2035 -32 c53 -24 98 -77 124 -145 29 -79
35 -106 22 -106 -6 0 -11 -8 -12 -17 0 -10 -6 2 -13 27 -17 64 -54 135 -88
167 -23 22 -28 23 -28 10 0 -10 7 -20 15 -23 20 -8 60 -80 79 -143 21 -73 21
-83 -6 -79 -16 2 -24 12 -29 38 -4 20 -21 46 -38 62 -30 27 -30 28 -16 62 22
53 17 57 -8 7 -12 -25 -27 -47 -33 -48 -7 -2 -3 15 9 38 19 38 19 44 6 68 -37
66 -135 18 -99 -49 15 -28 54 -23 58 8 3 18 -1 22 -20 21 -18 -1 -19 -2 -5 -6
21 -5 18 -28 -4 -28 -8 0 -15 13 -17 32 -3 28 0 33 24 39 39 10 68 -25 53 -64
-15 -39 -29 -52 -56 -52 -37 0 -63 18 -79 55 -21 50 -18 70 17 110 36 41 79
46 144 16z m619 -12 c57 -67 17 -165 -72 -173 -36 -4 -45 0 -63 22 -15 19 -20
37 -17 64 4 39 1 43 -19 30 -10 -6 -8 -20 7 -62 11 -29 19 -54 17 -54 -1 -1
-19 -16 -39 -35 -22 -20 -43 -31 -52 -28 -14 5 -14 11 -1 47 8 23 24 55 36 71
12 17 19 33 16 36 -8 7 -52 -65 -66 -109 -14 -43 -28 -56 -37 -34 -8 21 21
104 55 158 33 53 113 98 172 98 29 0 43 -7 63 -31z m926 4 c62 -33 101 -94
137 -213 24 -83 31 -76 8 9 -13 52 -13 71 4 71 4 0 13 -16 20 -36 17 -46 53
-64 80 -40 11 10 25 31 31 47 7 16 17 28 22 27 13 -5 12 -7 -8 -93 l-18 -75
-77 1 -77 1 -6 42 c-9 58 -57 155 -94 190 l-30 28 4 -38 c5 -40 -23 -104 -46
-104 -5 0 -1 15 10 33 11 17 20 41 20 51 0 50 -70 74 -104 37 -25 -28 -9 -76
25 -76 17 0 25 6 27 23 3 16 -2 22 -15 22 -14 0 -15 -2 -4 -9 14 -9 7 -31 -9
-31 -16 0 -23 49 -10 65 29 35 86 2 75 -44 -16 -63 -73 -80 -118 -36 -43 44
-41 103 5 153 30 31 83 29 148 -5z m598 5 c26 -29 43 -73 36 -95 -14 -43 -30
-66 -57 -80 -25 -13 -31 -13 -53 2 -49 32 -54 100 -8 111 42 11 68 -28 44 -66
-7 -12 -12 -12 -22 -2 -10 10 -10 15 2 22 13 8 12 10 -3 10 -28 0 -18 -44 10
-48 33 -5 50 41 28 74 -18 28 -51 31 -84 8 -19 -14 -22 -23 -18 -52 4 -19 14
-43 23 -53 10 -12 12 -19 5 -19 -21 0 -52 63 -48 98 4 39 -2 40 -35 5 -34 -37
-58 -85 -78 -158 -11 -40 -23 -61 -34 -63 -20 -4 -17 12 20 126 33 101 66 146
127 177 65 32 116 33 145 3z m-2322 -43 c-17 -49 -6 -91 34 -127 35 -33 28
-36 -16 -9 -54 33 -68 118 -27 164 22 24 24 18 9 -28z m864 -39 c0 -40 -36
-96 -69 -108 -21 -7 -20 -5 7 20 40 37 51 91 28 141 l-16 36 25 -28 c16 -18
25 -40 25 -61z m676 62 c-31 -45 -13 -128 36 -162 26 -19 19 -21 -16 -4 -33
14 -70 89 -61 120 10 33 34 68 46 68 5 0 3 -10 -5 -22z m844 -19 c16 -38 6
-96 -21 -125 -34 -36 -42 -29 -14 12 29 42 33 98 10 132 -13 18 -14 21 -1 16
8 -3 20 -19 26 -35z m-1828 -21 c-36 -60 -51 -93 -64 -138 -13 -44 -14 -45
-57 -48 -72 -5 -89 3 -101 49 -16 57 2 72 26 23 35 -70 72 -71 106 -4 9 18 22
37 29 41 17 10 -43 39 -83 39 -18 0 -48 -9 -65 -20 l-33 -20 -16 33 c-9 17
-24 42 -32 55 l-14 22 162 0 162 0 -20 -32z m1529 -9 c-17 -22 -31 -45 -34
-52 -2 -8 -14 -6 -39 6 -47 22 -85 21 -131 -2 -35 -18 -39 -18 -44 -3 -4 9
-17 34 -30 55 l-23 37 165 0 165 0 -29 -41z m-295 -104 c13 -27 26 -69 30 -92
6 -38 4 -43 -13 -43 -15 0 -23 11 -32 41 -7 23 -24 52 -37 64 -23 22 -24 25
-12 69 11 43 14 46 26 29 8 -10 25 -40 38 -68z m374 54 c0 -11 5 -29 11 -41 9
-16 7 -23 -10 -35 -25 -17 -51 -64 -51 -93 0 -15 -6 -20 -25 -20 -30 0 -30 1
-5 81 31 100 80 166 80 108z m-1710 1 c16 -9 17 -15 9 -39 -6 -16 -19 -37 -30
-47 -18 -16 -20 -16 -38 0 -11 10 -24 31 -30 47 -9 26 -8 31 12 39 30 12 55
12 77 0z m1528 4 c12 -4 22 -12 22 -19 0 -17 -42 -78 -57 -82 -14 -5 -53 53
-53 79 0 23 43 34 88 22z m-1752 -161 c6 -31 5 -33 -23 -33 -27 0 -29 2 -25
35 3 24 -1 42 -12 54 -9 10 -13 21 -9 25 12 12 62 -47 69 -81z m424 52 c-12
-13 -27 -22 -33 -18 -6 4 2 16 18 30 34 30 46 21 15 -12z m1095 -15 c23 -45
20 -70 -11 -70 -23 0 -25 3 -19 28 4 20 0 36 -14 54 -11 14 -18 28 -14 31 10
11 42 -13 58 -43z m440 16 c-12 -17 -15 -36 -11 -56 5 -28 3 -30 -24 -30 -17
0 -30 5 -30 10 0 24 30 79 51 93 30 21 35 15 14 -17z m-1865 -106 c0 -6 -34
-10 -81 -10 -51 0 -78 4 -74 10 3 6 40 10 81 10 43 0 74 -4 74 -10z m1865 0
c4 -7 -80 -10 -245 -10 -165 0 -249 3 -245 10 4 6 97 10 245 10 148 0 241 -4
245 -10z m-851 -26 c125 -18 197 -50 258 -115 99 -106 125 -299 57 -431 -45
-87 -156 -164 -276 -188 l-53 -11 0 -53 0 -52 43 -11 c93 -26 231 -133 300
-232 17 -25 51 -92 77 -150 100 -226 164 -336 264 -453 l57 -67 -28 -8 c-49
-13 -205 -7 -265 10 -172 51 -301 211 -423 522 -26 66 -65 153 -87 193 -45 83
-130 179 -182 207 -26 14 -37 28 -44 57 -9 36 -9 38 13 38 13 0 53 9 90 21 88
27 162 97 191 179 28 81 26 238 -3 302 -63 139 -168 188 -401 188 l-92 0 0
-632 c0 -568 5 -759 26 -996 l7 -72 -214 2 -214 3 3 45 c32 568 29 1300 -7
1638 l-7 72 130 1 c72 1 199 5 281 9 183 9 367 3 499 -16z m-1014 -4 c0 -6
-35 -10 -86 -10 -54 0 -83 4 -79 10 3 6 42 10 86 10 46 0 79 -4 79 -10z m1875
0 c4 -7 -82 -10 -249 -10 -164 0 -256 4 -256 10 0 6 90 10 249 10 156 0 252
-4 256 -10z m-1865 -40 c0 -6 -33 -10 -79 -10 -44 0 -83 5 -86 10 -4 6 25 10
79 10 51 0 86 -4 86 -10z m1855 0 c-4 -6 -97 -10 -246 -10 -153 0 -239 4 -239
10 0 6 89 10 246 10 161 0 243 -3 239 -10z m-1860 -52 c-13 -38 -18 -1629 -6
-1641 29 -29 11 -37 -79 -37 -87 0 -90 1 -90 23 0 12 7 348 15 747 8 399 15
771 15 828 l0 102 76 0 c75 0 76 0 69 -22z m1849 -200 c11 -408 28 -1409 23
-1414 -2 -2 -11 -2 -19 1 -14 5 -16 66 -22 453 -3 246 -9 605 -14 797 l-7 350
-25 0 -25 0 3 -670 c1 -369 5 -715 8 -770 l5 -100 -28 28 -28 27 -5 743 -5
742 -27 3 c-20 2 -28 -2 -33 -19 -4 -13 -4 -322 0 -687 5 -494 4 -663 -4 -658
-6 4 -21 26 -34 49 -22 42 -22 43 -27 677 l-5 635 -25 0 -25 0 -5 -555 -5
-555 -24 50 -23 50 3 505 4 505 -27 3 c-20 2 -28 -1 -28 -12 0 -24 -15 -19
-28 9 -7 14 -12 28 -12 30 0 3 103 5 229 5 l229 0 6 -222z m-381 170 c2 -7 2
-49 -1 -93 l-5 -80 -13 55 c-18 75 -18 130 0 130 8 0 16 -6 19 -12z m104 -604
c2 -606 2 -609 -17 -574 -18 33 -19 62 -20 606 0 314 3 574 7 578 26 25 28
-23 30 -610z m126 269 c4 -190 7 -515 7 -722 -1 -375 -1 -376 -20 -352 -19 23
-20 42 -20 722 0 577 2 699 13 699 11 0 15 -67 20 -347z m104 226 c8 -350 20
-1445 17 -1448 -3 -3 -11 2 -19 10 -12 12 -16 137 -25 777 -6 419 -8 767 -5
773 4 5 12 8 18 6 8 -2 13 -42 14 -118z m-1779 -654 c0 -314 -4 -617 -8 -675
-3 -58 -7 237 -7 655 0 418 3 722 8 675 4 -47 7 -341 7 -655z m767 710 c92
-26 129 -90 128 -221 -1 -166 -82 -244 -255 -244 l-58 0 0 246 0 246 68 -6
c37 -4 90 -13 117 -21z m670 -785 c-6 -101 -9 -112 -21 -95 -23 31 -20 437 3
532 l18 73 3 -198 c2 -108 0 -249 -3 -312z m-50 42 c-6 -70 -9 -81 -21 -71
-11 9 -14 46 -14 171 0 134 3 165 18 190 17 29 17 29 20 -89 2 -65 0 -155 -3
-201z m-45 107 l0 -141 -47 42 c-26 23 -69 55 -95 72 -27 17 -48 33 -48 35 0
1 21 13 48 27 26 13 67 42 92 65 25 22 46 40 48 41 1 0 2 -63 2 -141z m-1370
-984 c0 -12 -17 -15 -95 -15 -87 0 -107 5 -88 23 3 4 46 7 95 7 72 0 88 -3 88
-15z m1908 -3 c2 -7 -6 -12 -17 -12 -21 0 -27 11 -14 24 9 9 26 2 31 -12z
m-1908 -37 c0 -13 30 -15 210 -15 175 0 210 -2 210 -14 0 -8 -7 -22 -16 -30
-13 -14 -56 -16 -314 -16 -258 0 -301 2 -314 16 -9 8 -16 22 -16 29 0 35 29
45 136 45 86 0 104 -3 104 -15z m1366 -1 c140 -60 284 -58 502 8 31 9 48 9 60
2 23 -15 27 -48 7 -68 -14 -14 -53 -16 -314 -16 -312 0 -321 1 -321 45 0 17
16 45 26 45 1 0 19 -7 40 -16z m-968 -111 l3 -23 -310 0 c-295 0 -311 1 -311
18 0 10 3 22 7 25 4 4 142 6 307 5 l301 -3 3 -22z m1536 11 c3 -9 4 -20 0 -25
-8 -13 -611 -12 -619 1 -4 6 -4 17 -1 25 5 13 53 15 310 15 269 0 305 -2 310
-16z m-1541 -59 c-4 -12 -603 -19 -603 -7 0 5 3 12 7 15 11 12 598 3 596 -8z
m1535 -2 c3 -10 -62 -13 -302 -13 -168 0 -306 4 -306 8 0 5 3 12 7 15 4 4 139
6 301 5 226 -2 296 -6 300 -15z m-1508 -43 c11 -20 8 -20 -330 -20 -187 0
-340 2 -340 4 0 3 7 12 16 20 13 14 57 16 329 16 304 0 315 -1 325 -20z m1528
8 c7 -7 12 -16 12 -20 0 -4 -151 -8 -335 -8 -282 0 -335 2 -335 14 0 8 6 17
13 19 6 3 152 6 323 6 229 1 313 -2 322 -11z m-1440 -105 l-3 -58 -412 -3
-413 -2 0 60 0 60 415 0 416 0 -3 -57z m1530 0 l-3 -58 -412 -3 -413 -2 0 60
0 60 415 0 416 0 -3 -57z"/>
<path d="M2766 3444 c-22 -22 -20 -67 4 -95 l21 -24 -16 33 c-22 45 -16 74 18
86 21 8 31 6 43 -6 20 -19 11 -68 -11 -68 -18 0 -20 26 -2 33 7 3 6 6 -5 6
-21 1 -30 -12 -22 -33 8 -21 50 -21 58 0 10 25 7 59 -6 72 -17 17 -64 15 -82
-4z"/>
<path d="M2306 3028 c-11 -52 -24 -1603 -14 -1615 16 -20 37 -15 48 10 9 21
30 1589 22 1615 -7 22 -51 14 -56 -10z m40 -625 c-8 -827 -13 -983 -34 -983
-13 0 -14 85 -8 748 7 807 10 872 33 872 14 0 15 -73 9 -637z"/>
</g>
</svg>
